# MagicaVoxel @ Ephtracy

# group
g Centipede-2

# material
mtllib Centipede-2.mtl
usemtl palette

# normals
vn -1 0 0
vn 1 0 0
vn 0 0 1
vn 0 0 -1
vn 0 -1 0
vn 0 1 0

# texcoords
vt 0.00195313 0.5
vt 0.00585938 0.5
vt 0.111328 0.5
vt 0.142578 0.5
vt 0.173828 0.5

# verts
v -2.5 0 -1
v -2.5 0 -2
v -2.5 2 -0
v -2.5 2 -1
v -2.5 3 1
v -2.5 3 -0
v -2.5 5 1
v -2.5 5 -2
v -2.5 11 1
v -2.5 11 -2
v -2.5 13 1
v -2.5 13 -0
v -2.5 14 -0
v -2.5 14 -1
v -2.5 16 -1
v -2.5 16 -2
v -1.5 0 -1
v -1.5 0 -2
v -1.5 1 -1
v -1.5 1 -2
v -1.5 3 1
v -1.5 3 -0
v -1.5 4 1
v -1.5 4 -0
v -1.5 12 1
v -1.5 12 -0
v -1.5 13 1
v -1.5 13 -0
v -1.5 15 -1
v -1.5 15 -2
v -1.5 16 -1
v -1.5 16 -2
v -0.5 4 1
v -0.5 4 -0
v -0.5 5 1
v -0.5 5 -0
v -0.5 11 1
v -0.5 11 -0
v -0.5 12 1
v -0.5 12 -0
v 0.5 1 -1
v 0.5 1 -2
v 0.5 2 -0
v 0.5 2 -1
v 0.5 2 -2
v 0.5 3 -0
v 0.5 3 -1
v 0.5 4 -0
v 0.5 4 -1
v 0.5 5 -0
v 0.5 5 -1
v 0.5 11 -0
v 0.5 11 -1
v 0.5 12 -0
v 0.5 12 -1
v 0.5 13 -0
v 0.5 13 -1
v 0.5 14 -0
v 0.5 14 -1
v 0.5 14 -2
v 0.5 15 -1
v 0.5 15 -2
v 1.5 2 -1
v 1.5 2 -2
v 1.5 3 -1
v 1.5 3 -2
v 1.5 13 -1
v 1.5 13 -2
v 1.5 14 -1
v 1.5 14 -2
v 2.5 3 -1
v 2.5 3 -2
v 2.5 5 -1
v 2.5 5 -2
v 2.5 11 -1
v 2.5 11 -2
v 2.5 13 -1
v 2.5 13 -2
v -2.5 3 1
v -2.5 5 1
v -2.5 11 1
v -2.5 13 1
v -1.5 3 1
v -1.5 4 1
v -1.5 12 1
v -1.5 13 1
v -0.5 4 1
v -0.5 5 1
v -0.5 11 1
v -0.5 12 1
v -2.5 2 -0
v -2.5 3 -0
v -2.5 13 -0
v -2.5 14 -0
v -1.5 2 -0
v -1.5 3 -0
v -1.5 4 -0
v -1.5 12 -0
v -1.5 13 -0
v -1.5 14 -0
v -0.5 2 -0
v -0.5 3 -0
v -0.5 4 -0
v -0.5 5 -0
v -0.5 11 -0
v -0.5 12 -0
v -0.5 13 -0
v -0.5 14 -0
v 0.5 2 -0
v 0.5 3 -0
v 0.5 4 -0
v 0.5 5 -0
v 0.5 11 -0
v 0.5 12 -0
v 0.5 13 -0
v 0.5 14 -0
v -2.5 0 -1
v -2.5 2 -1
v -2.5 14 -1
v -2.5 16 -1
v -1.5 0 -1
v -1.5 1 -1
v -1.5 2 -1
v -1.5 14 -1
v -1.5 15 -1
v -1.5 16 -1
v -0.5 2 -1
v -0.5 14 -1
v 0.5 1 -1
v 0.5 2 -1
v 0.5 3 -1
v 0.5 4 -1
v 0.5 5 -1
v 0.5 11 -1
v 0.5 12 -1
v 0.5 13 -1
v 0.5 14 -1
v 0.5 15 -1
v 1.5 2 -1
v 1.5 3 -1
v 1.5 13 -1
v 1.5 14 -1
v 2.5 3 -1
v 2.5 5 -1
v 2.5 11 -1
v 2.5 13 -1
v -2.5 0 -2
v -2.5 5 -2
v -2.5 11 -2
v -2.5 16 -2
v -1.5 0 -2
v -1.5 1 -2
v -1.5 15 -2
v -1.5 16 -2
v 0.5 1 -2
v 0.5 2 -2
v 0.5 5 -2
v 0.5 11 -2
v 0.5 14 -2
v 0.5 15 -2
v 1.5 2 -2
v 1.5 3 -2
v 1.5 13 -2
v 1.5 14 -2
v 2.5 3 -2
v 2.5 5 -2
v 2.5 11 -2
v 2.5 13 -2
v -2.5 0 -1
v -1.5 0 -1
v -2.5 0 -2
v -1.5 0 -2
v -1.5 1 -1
v 0.5 1 -1
v -1.5 1 -2
v 0.5 1 -2
v -2.5 2 -0
v -1.5 2 -0
v -0.5 2 -0
v 0.5 2 -0
v -2.5 2 -1
v -1.5 2 -1
v -0.5 2 -1
v 0.5 2 -1
v 1.5 2 -1
v 0.5 2 -2
v 1.5 2 -2
v -2.5 3 1
v -1.5 3 1
v -2.5 3 -0
v -1.5 3 -0
v 1.5 3 -1
v 2.5 3 -1
v 1.5 3 -2
v 2.5 3 -2
v -1.5 4 1
v -0.5 4 1
v -1.5 4 -0
v -0.5 4 -0
v -2.5 11 1
v -0.5 11 1
v -0.5 11 -0
v 0.5 11 -0
v -0.5 11 -1
v 0.5 11 -1
v 2.5 11 -1
v -2.5 11 -2
v 0.5 11 -2
v 2.5 11 -2
v -2.5 5 1
v -0.5 5 1
v -0.5 5 -0
v 0.5 5 -0
v -0.5 5 -1
v 0.5 5 -1
v 2.5 5 -1
v -2.5 5 -2
v 0.5 5 -2
v 2.5 5 -2
v -1.5 12 1
v -0.5 12 1
v -1.5 12 -0
v -0.5 12 -0
v -2.5 13 1
v -1.5 13 1
v -2.5 13 -0
v -1.5 13 -0
v 1.5 13 -1
v 2.5 13 -1
v 1.5 13 -2
v 2.5 13 -2
v -2.5 14 -0
v -1.5 14 -0
v -0.5 14 -0
v 0.5 14 -0
v -2.5 14 -1
v -1.5 14 -1
v -0.5 14 -1
v 0.5 14 -1
v 1.5 14 -1
v 0.5 14 -2
v 1.5 14 -2
v -1.5 15 -1
v 0.5 15 -1
v -1.5 15 -2
v 0.5 15 -2
v -2.5 16 -1
v -1.5 16 -1
v -2.5 16 -2
v -1.5 16 -2

# faces
f 4/2/1 2/2/1 1/2/1
f 6/2/1 4/2/1 3/2/1
f 7/2/1 6/2/1 5/2/1
f 8/2/1 2/2/1 4/2/1
f 8/2/1 6/2/1 7/2/1
f 8/2/1 4/2/1 6/2/1
f 11/2/1 10/2/1 9/2/1
f 12/2/1 10/2/1 11/2/1
f 13/2/1 10/2/1 12/2/1
f 14/2/1 10/2/1 13/2/1
f 15/2/1 10/2/1 14/2/1
f 16/2/1 10/2/1 15/2/1
f 17/2/2 18/2/2 19/2/2
f 19/2/2 18/2/2 20/2/2
f 21/2/2 22/2/2 23/2/2
f 23/2/2 22/2/2 24/2/2
f 25/2/2 26/2/2 27/2/2
f 27/2/2 26/2/2 28/2/2
f 29/2/2 30/2/2 31/2/2
f 31/2/2 30/2/2 32/2/2
f 33/2/2 34/2/2 35/2/2
f 35/2/2 34/2/2 36/2/2
f 37/2/2 38/2/2 39/2/2
f 39/2/2 38/2/2 40/2/2
f 41/2/2 42/2/2 44/2/2
f 44/2/2 42/2/2 45/2/2
f 43/3/2 44/3/2 46/3/2
f 46/3/2 44/3/2 47/3/2
f 46/4/2 47/4/2 48/4/2
f 48/4/2 47/4/2 49/4/2
f 48/5/2 49/5/2 50/5/2
f 50/5/2 49/5/2 51/5/2
f 52/5/2 53/5/2 54/5/2
f 54/5/2 53/5/2 55/5/2
f 54/4/2 55/4/2 56/4/2
f 56/4/2 55/4/2 57/4/2
f 56/3/2 57/3/2 58/3/2
f 58/3/2 57/3/2 59/3/2
f 59/2/2 60/2/2 61/2/2
f 61/2/2 60/2/2 62/2/2
f 63/1/2 64/1/2 65/1/2
f 65/1/2 64/1/2 66/1/2
f 67/1/2 68/1/2 69/1/2
f 69/1/2 68/1/2 70/1/2
f 71/1/2 72/1/2 73/1/2
f 73/1/2 72/1/2 74/1/2
f 75/1/2 76/1/2 77/1/2
f 77/1/2 76/1/2 78/1/2
f 83/2/3 80/2/3 79/2/3
f 84/2/3 80/2/3 83/2/3
f 85/2/3 82/2/3 81/2/3
f 86/2/3 82/2/3 85/2/3
f 87/2/3 80/2/3 84/2/3
f 88/2/3 80/2/3 87/2/3
f 89/2/3 85/2/3 81/2/3
f 90/2/3 85/2/3 89/2/3
f 95/2/3 92/2/3 91/2/3
f 96/2/3 92/2/3 95/2/3
f 99/2/3 94/2/3 93/2/3
f 100/2/3 94/2/3 99/2/3
f 101/4/3 96/4/3 95/4/3
f 102/3/3 97/3/3 96/3/3
f 102/4/3 96/4/3 101/4/3
f 103/3/3 97/3/3 102/3/3
f 106/3/3 99/3/3 98/3/3
f 107/4/3 100/4/3 99/4/3
f 107/3/3 99/3/3 106/3/3
f 108/4/3 100/4/3 107/4/3
f 109/3/3 102/3/3 101/3/3
f 110/4/3 103/4/3 102/4/3
f 110/3/3 102/3/3 109/3/3
f 111/5/3 104/5/3 103/5/3
f 111/4/3 103/4/3 110/4/3
f 112/5/3 104/5/3 111/5/3
f 113/5/3 106/5/3 105/5/3
f 114/4/3 107/4/3 106/4/3
f 114/5/3 106/5/3 113/5/3
f 115/3/3 108/3/3 107/3/3
f 115/4/3 107/4/3 114/4/3
f 116/3/3 108/3/3 115/3/3
f 121/2/3 118/2/3 117/2/3
f 122/2/3 118/2/3 121/2/3
f 123/2/3 118/2/3 122/2/3
f 124/2/3 120/2/3 119/2/3
f 125/2/3 120/2/3 124/2/3
f 126/2/3 120/2/3 125/2/3
f 127/2/3 123/2/3 122/2/3
f 128/2/3 125/2/3 124/2/3
f 129/2/3 127/2/3 122/2/3
f 130/2/3 127/2/3 129/2/3
f 137/2/3 125/2/3 128/2/3
f 138/2/3 125/2/3 137/2/3
f 139/1/3 131/1/3 130/1/3
f 139/1/3 132/1/3 131/1/3
f 139/1/3 133/1/3 132/1/3
f 140/1/3 133/1/3 139/1/3
f 141/1/3 136/1/3 135/1/3
f 141/1/3 137/1/3 136/1/3
f 141/1/3 135/1/3 134/1/3
f 142/1/3 137/1/3 141/1/3
f 143/1/3 133/1/3 140/1/3
f 144/1/3 133/1/3 143/1/3
f 145/1/3 141/1/3 134/1/3
f 146/1/3 141/1/3 145/1/3
f 147/2/4 148/2/4 151/2/4
f 151/2/4 148/2/4 152/2/4
f 149/2/4 150/2/4 153/2/4
f 153/2/4 150/2/4 154/2/4
f 152/2/4 148/2/4 155/2/4
f 155/2/4 148/2/4 156/2/4
f 156/2/4 148/2/4 157/2/4
f 149/2/4 153/2/4 158/2/4
f 158/2/4 153/2/4 159/2/4
f 159/2/4 153/2/4 160/2/4
f 156/1/4 157/1/4 161/1/4
f 161/1/4 157/1/4 162/1/4
f 158/1/4 159/1/4 163/1/4
f 163/1/4 159/1/4 164/1/4
f 162/1/4 157/1/4 165/1/4
f 165/1/4 157/1/4 166/1/4
f 158/1/4 163/1/4 167/1/4
f 167/1/4 163/1/4 168/1/4
f 171/2/5 170/2/5 169/2/5
f 172/2/5 170/2/5 171/2/5
f 175/2/5 174/2/5 173/2/5
f 176/2/5 174/2/5 175/2/5
f 181/2/5 178/2/5 177/2/5
f 182/4/5 179/4/5 178/4/5
f 182/2/5 178/2/5 181/2/5
f 183/3/5 180/3/5 179/3/5
f 183/4/5 179/4/5 182/4/5
f 184/3/5 180/3/5 183/3/5
f 186/1/5 185/1/5 184/1/5
f 187/1/5 185/1/5 186/1/5
f 190/2/5 189/2/5 188/2/5
f 191/2/5 189/2/5 190/2/5
f 194/1/5 193/1/5 192/1/5
f 195/1/5 193/1/5 194/1/5
f 198/2/5 197/2/5 196/2/5
f 199/2/5 197/2/5 198/2/5
f 202/2/5 201/2/5 200/2/5
f 204/2/5 202/2/5 200/2/5
f 204/5/5 203/5/5 202/5/5
f 205/5/5 203/5/5 204/5/5
f 207/2/5 204/2/5 200/2/5
f 207/2/5 205/2/5 204/2/5
f 208/1/5 206/1/5 205/1/5
f 208/2/5 205/2/5 207/2/5
f 209/1/5 206/1/5 208/1/5
f 210/2/6 211/2/6 212/2/6
f 210/2/6 212/2/6 214/2/6
f 212/5/6 213/5/6 214/5/6
f 214/5/6 213/5/6 215/5/6
f 210/2/6 214/2/6 217/2/6
f 214/2/6 215/2/6 217/2/6
f 215/1/6 216/1/6 218/1/6
f 217/2/6 215/2/6 218/2/6
f 218/1/6 216/1/6 219/1/6
f 220/2/6 221/2/6 222/2/6
f 222/2/6 221/2/6 223/2/6
f 224/2/6 225/2/6 226/2/6
f 226/2/6 225/2/6 227/2/6
f 228/1/6 229/1/6 230/1/6
f 230/1/6 229/1/6 231/1/6
f 232/2/6 233/2/6 236/2/6
f 233/4/6 234/4/6 237/4/6
f 236/2/6 233/2/6 237/2/6
f 234/3/6 235/3/6 238/3/6
f 237/4/6 234/4/6 238/4/6
f 238/3/6 235/3/6 239/3/6
f 239/1/6 240/1/6 241/1/6
f 241/1/6 240/1/6 242/1/6
f 243/2/6 244/2/6 245/2/6
f 245/2/6 244/2/6 246/2/6
f 247/2/6 248/2/6 249/2/6
f 249/2/6 248/2/6 250/2/6
