# MagicaVoxel @ Ephtracy

# group
g Scorpion-2

# material
mtllib Scorpion-2.mtl
usemtl palette

# normals
vn -1 0 0
vn 1 0 0
vn 0 0 1
vn 0 0 -1
vn 0 -1 0
vn 0 1 0

# texcoords
vt 0.00195313 0.5
vt 0.111328 0.5
vt 0.115234 0.5
vt 0.205078 0.5

# verts
v -1 0 3
v -1 0 2
v -1 0 -0
v -1 1 4
v -1 1 3
v -1 1 2
v -1 1 -0
v -1 2 3
v -1 2 2
v -1 3 5
v -1 3 4
v -1 3 3
v -1 5 5
v -1 5 4
v -1 5 3
v -1 5 2
v -1 6 4
v -1 6 3
v -1 7 2
v -1 7 1
v -1 8 3
v -1 8 2
v -1 8 1
v -1 8 -3
v -1 9 2
v -1 9 -2
v -1 9 -3
v -1 9 -4
v -1 9 -5
v -1 10 -2
v -1 10 -4
v -1 10 -5
v 1 0 3
v 1 0 2
v 1 0 -0
v 1 1 4
v 1 1 3
v 1 1 2
v 1 1 -0
v 1 2 3
v 1 2 2
v 1 3 5
v 1 3 4
v 1 3 3
v 1 5 5
v 1 5 4
v 1 5 3
v 1 5 2
v 1 6 4
v 1 6 3
v 1 7 2
v 1 7 1
v 1 8 3
v 1 8 2
v 1 8 1
v 1 8 -3
v 1 9 2
v 1 9 -2
v 1 9 -3
v 1 9 -4
v 1 9 -5
v 1 10 -2
v 1 10 -4
v 1 10 -5
v -1 3 5
v -1 5 5
v 1 3 5
v 1 5 5
v -1 1 4
v -1 3 4
v -1 5 4
v -1 6 4
v 1 1 4
v 1 3 4
v 1 5 4
v 1 6 4
v -1 0 3
v -1 1 3
v -1 6 3
v -1 8 3
v 1 0 3
v 1 1 3
v 1 6 3
v 1 8 3
v -1 8 2
v -1 9 2
v 1 8 2
v 1 9 2
v -1 9 -2
v -1 10 -2
v 1 9 -2
v 1 10 -2
v -1 2 3
v -1 3 3
v -1 5 3
v 1 2 3
v 1 3 3
v 1 5 3
v -1 1 2
v -1 2 2
v -1 5 2
v -1 7 2
v 1 1 2
v 1 2 2
v 1 5 2
v 1 7 2
v -1 7 1
v -1 8 1
v 1 7 1
v 1 8 1
v -1 0 -0
v -1 1 -0
v 1 0 -0
v 1 1 -0
v -1 8 -3
v -1 9 -3
v 1 8 -3
v 1 9 -3
v -1 9 -5
v -1 10 -5
v 1 9 -5
v 1 10 -5
v -1 0 3
v 1 0 3
v -1 0 2
v 1 0 2
v -1 0 -0
v 1 0 -0
v -1 1 4
v 1 1 4
v -1 1 3
v 1 1 3
v -1 3 5
v 1 3 5
v -1 3 4
v 1 3 4
v -1 5 3
v 1 5 3
v -1 5 2
v 1 5 2
v -1 7 2
v 1 7 2
v -1 7 1
v 1 7 1
v -1 8 1
v 1 8 1
v -1 8 -3
v 1 8 -3
v -1 9 -3
v 1 9 -3
v -1 9 -4
v 1 9 -4
v -1 9 -5
v 1 9 -5
v -1 1 2
v 1 1 2
v -1 1 -0
v 1 1 -0
v -1 2 3
v 1 2 3
v -1 2 2
v 1 2 2
v -1 5 5
v 1 5 5
v -1 5 4
v 1 5 4
v -1 6 4
v 1 6 4
v -1 6 3
v 1 6 3
v -1 8 3
v 1 8 3
v -1 8 2
v 1 8 2
v -1 9 2
v 1 9 2
v -1 9 -2
v 1 9 -2
v -1 10 -2
v 1 10 -2
v -1 10 -4
v 1 10 -4
v -1 10 -5
v 1 10 -5

# faces
f 5/1/1 2/1/1 1/1/1
f 6/2/1 3/2/1 2/2/1
f 6/1/1 2/1/1 5/1/1
f 7/2/1 3/2/1 6/2/1
f 8/1/1 5/1/1 4/1/1
f 8/1/1 6/1/1 5/1/1
f 9/1/1 6/1/1 8/1/1
f 11/1/1 8/1/1 4/1/1
f 12/1/1 8/1/1 11/1/1
f 13/3/1 11/3/1 10/3/1
f 13/3/1 12/3/1 11/3/1
f 14/3/1 12/3/1 13/3/1
f 15/3/1 12/3/1 14/3/1
f 17/1/1 15/1/1 14/1/1
f 17/1/1 16/1/1 15/1/1
f 18/1/1 16/1/1 17/1/1
f 19/1/1 16/1/1 18/1/1
f 21/1/1 19/1/1 18/1/1
f 21/1/1 20/1/1 19/1/1
f 22/1/1 20/1/1 21/1/1
f 23/1/1 20/1/1 22/1/1
f 25/1/1 23/1/1 22/1/1
f 25/1/1 24/1/1 23/1/1
f 26/1/1 24/1/1 25/1/1
f 27/1/1 24/1/1 26/1/1
f 30/1/1 27/1/1 26/1/1
f 30/1/1 28/1/1 27/1/1
f 31/4/1 29/4/1 28/4/1
f 31/1/1 28/1/1 30/1/1
f 32/4/1 29/4/1 31/4/1
f 33/1/2 34/1/2 37/1/2
f 34/2/2 35/2/2 38/2/2
f 37/1/2 34/1/2 38/1/2
f 38/2/2 35/2/2 39/2/2
f 36/1/2 37/1/2 40/1/2
f 37/1/2 38/1/2 40/1/2
f 40/1/2 38/1/2 41/1/2
f 36/1/2 40/1/2 43/1/2
f 43/1/2 40/1/2 44/1/2
f 42/3/2 43/3/2 45/3/2
f 43/3/2 44/3/2 45/3/2
f 45/3/2 44/3/2 46/3/2
f 46/3/2 44/3/2 47/3/2
f 46/1/2 47/1/2 49/1/2
f 47/1/2 48/1/2 49/1/2
f 49/1/2 48/1/2 50/1/2
f 50/1/2 48/1/2 51/1/2
f 50/1/2 51/1/2 53/1/2
f 51/1/2 52/1/2 53/1/2
f 53/1/2 52/1/2 54/1/2
f 54/1/2 52/1/2 55/1/2
f 54/1/2 55/1/2 57/1/2
f 55/1/2 56/1/2 57/1/2
f 57/1/2 56/1/2 58/1/2
f 58/1/2 56/1/2 59/1/2
f 58/1/2 59/1/2 62/1/2
f 59/1/2 60/1/2 62/1/2
f 60/4/2 61/4/2 63/4/2
f 62/1/2 60/1/2 63/1/2
f 63/4/2 61/4/2 64/4/2
f 67/3/3 66/3/3 65/3/3
f 68/3/3 66/3/3 67/3/3
f 73/1/3 70/1/3 69/1/3
f 74/1/3 70/1/3 73/1/3
f 75/1/3 72/1/3 71/1/3
f 76/1/3 72/1/3 75/1/3
f 81/1/3 78/1/3 77/1/3
f 82/1/3 78/1/3 81/1/3
f 83/1/3 80/1/3 79/1/3
f 84/1/3 80/1/3 83/1/3
f 87/1/3 86/1/3 85/1/3
f 88/1/3 86/1/3 87/1/3
f 91/1/3 90/1/3 89/1/3
f 92/1/3 90/1/3 91/1/3
f 93/1/4 94/1/4 96/1/4
f 94/3/4 95/3/4 97/3/4
f 96/1/4 94/1/4 97/1/4
f 97/3/4 95/3/4 98/3/4
f 99/1/4 100/1/4 103/1/4
f 103/1/4 100/1/4 104/1/4
f 101/1/4 102/1/4 105/1/4
f 105/1/4 102/1/4 106/1/4
f 107/1/4 108/1/4 109/1/4
f 109/1/4 108/1/4 110/1/4
f 111/2/4 112/2/4 113/2/4
f 113/2/4 112/2/4 114/2/4
f 115/1/4 116/1/4 117/1/4
f 117/1/4 116/1/4 118/1/4
f 119/4/4 120/4/4 121/4/4
f 121/4/4 120/4/4 122/4/4
f 125/1/5 124/1/5 123/1/5
f 126/1/5 124/1/5 125/1/5
f 127/2/5 126/2/5 125/2/5
f 128/2/5 126/2/5 127/2/5
f 131/1/5 130/1/5 129/1/5
f 132/1/5 130/1/5 131/1/5
f 135/3/5 134/3/5 133/3/5
f 136/3/5 134/3/5 135/3/5
f 139/1/5 138/1/5 137/1/5
f 140/1/5 138/1/5 139/1/5
f 143/1/5 142/1/5 141/1/5
f 144/1/5 142/1/5 143/1/5
f 147/1/5 146/1/5 145/1/5
f 148/1/5 146/1/5 147/1/5
f 151/1/5 150/1/5 149/1/5
f 152/1/5 150/1/5 151/1/5
f 153/4/5 152/4/5 151/4/5
f 154/4/5 152/4/5 153/4/5
f 155/2/6 156/2/6 157/2/6
f 157/2/6 156/2/6 158/2/6
f 159/1/6 160/1/6 161/1/6
f 161/1/6 160/1/6 162/1/6
f 163/3/6 164/3/6 165/3/6
f 165/3/6 164/3/6 166/3/6
f 167/1/6 168/1/6 169/1/6
f 169/1/6 168/1/6 170/1/6
f 171/1/6 172/1/6 173/1/6
f 173/1/6 172/1/6 174/1/6
f 175/1/6 176/1/6 177/1/6
f 177/1/6 176/1/6 178/1/6
f 179/1/6 180/1/6 181/1/6
f 181/1/6 180/1/6 182/1/6
f 181/4/6 182/4/6 183/4/6
f 183/4/6 182/4/6 184/4/6
