# MagicaVoxel @ Ephtracy

# group
g Spider-3

# material
mtllib Spider-3.mtl
usemtl palette

# normals
vn -1 0 0
vn 1 0 0
vn 0 0 1
vn 0 0 -1
vn 0 -1 0
vn 0 1 0

# texcoords
vt 0.00195313 0.5
vt 0.111328 0.5

# verts
v -1 0 -4
v -1 0 -5
v -1 1 -2
v -1 1 -4
v -1 1 -5
v -1 2 -0
v -1 2 -2
v -1 2 -4
v -1 3 2
v -1 3 -0
v -1 3 -2
v -1 4 4
v -1 4 2
v -1 4 -0
v -1 5 5
v -1 5 4
v -1 5 2
v -1 8 5
v -1 8 4
v -1 8 3
v -1 9 4
v -1 9 3
v -1 9 2
v -1 10 3
v -1 10 2
v -1 10 1
v -1 11 2
v -1 11 1
v -1 11 -1
v -1 12 1
v -1 12 -1
v -1 12 -2
v -1 13 -1
v -1 13 -2
v -1 13 -3
v -1 14 -2
v -1 14 -3
v -1 14 -4
v -1 15 -3
v -1 15 -4
v -1 15 -5
v -1 16 -4
v -1 16 -5
v 0 3 -0
v 0 3 -1
v 0 4 2
v 0 4 1
v 0 4 -0
v 0 4 -1
v 0 5 4
v 0 5 2
v 0 5 1
v 0 6 4
v 0 6 2
v 0 2 -0
v 0 2 -1
v 0 3 2
v 0 3 1
v 0 3 -0
v 0 3 -1
v 0 4 4
v 0 4 2
v 0 4 1
v 0 5 5
v 0 5 4
v 0 5 2
v 0 6 5
v 0 6 4
v 0 11 1
v 0 11 -0
v 0 12 1
v 0 12 -0
v 0 15 -4
v 0 15 -5
v 0 16 -4
v 0 16 -5
v 1 0 -4
v 1 0 -5
v 1 1 -2
v 1 1 -4
v 1 1 -5
v 1 2 -1
v 1 2 -2
v 1 2 -4
v 1 3 1
v 1 3 -1
v 1 3 -2
v 1 4 2
v 1 4 1
v 1 4 -1
v 1 5 4
v 1 5 2
v 1 5 1
v 1 6 5
v 1 6 4
v 1 6 2
v 1 8 5
v 1 8 4
v 1 8 3
v 1 9 4
v 1 9 3
v 1 9 2
v 1 10 3
v 1 10 2
v 1 10 1
v 1 11 2
v 1 11 1
v 1 11 -0
v 1 11 -1
v 1 12 -0
v 1 12 -1
v 1 12 -2
v 1 13 -1
v 1 13 -2
v 1 13 -3
v 1 14 -2
v 1 14 -3
v 1 14 -4
v 1 15 -3
v 1 15 -4
v -1 5 5
v -1 8 5
v 0 5 5
v 0 6 5
v 0 8 5
v 1 6 5
v 1 8 5
v -1 4 4
v -1 5 4
v -1 8 4
v -1 9 4
v 0 4 4
v 0 5 4
v 0 6 4
v 0 8 4
v 0 9 4
v 1 5 4
v 1 6 4
v 1 8 4
v 1 9 4
v -1 9 3
v -1 10 3
v 0 9 3
v 0 10 3
v 1 9 3
v 1 10 3
v -1 3 2
v -1 4 2
v -1 10 2
v -1 11 2
v 0 3 2
v 0 4 2
v 0 5 2
v 0 10 2
v 0 11 2
v 1 4 2
v 1 5 2
v 1 10 2
v 1 11 2
v -1 11 1
v -1 12 1
v 0 3 1
v 0 4 1
v 0 11 1
v 0 12 1
v 1 3 1
v 1 4 1
v -1 2 -0
v -1 3 -0
v 0 2 -0
v 0 3 -0
v 0 11 -0
v 0 12 -0
v 1 11 -0
v 1 12 -0
v -1 12 -1
v -1 13 -1
v 0 2 -1
v 0 3 -1
v 0 12 -1
v 0 13 -1
v 1 2 -1
v 1 3 -1
v 1 12 -1
v 1 13 -1
v -1 1 -2
v -1 2 -2
v -1 13 -2
v -1 14 -2
v 0 1 -2
v 0 2 -2
v 0 13 -2
v 0 14 -2
v 1 1 -2
v 1 2 -2
v 1 13 -2
v 1 14 -2
v -1 14 -3
v -1 15 -3
v 0 14 -3
v 0 15 -3
v 1 14 -3
v 1 15 -3
v -1 0 -4
v -1 1 -4
v -1 15 -4
v -1 16 -4
v 0 0 -4
v 0 1 -4
v 0 15 -4
v 0 16 -4
v 1 0 -4
v 1 1 -4
v -1 5 4
v -1 8 4
v 0 5 4
v 0 6 4
v 0 8 4
v 1 6 4
v 1 8 4
v -1 8 3
v -1 9 3
v 0 8 3
v 0 9 3
v 1 8 3
v 1 9 3
v -1 4 2
v -1 5 2
v -1 9 2
v -1 10 2
v 0 4 2
v 0 5 2
v 0 6 2
v 0 9 2
v 0 10 2
v 1 5 2
v 1 6 2
v 1 9 2
v 1 10 2
v -1 10 1
v -1 11 1
v 0 4 1
v 0 5 1
v 0 10 1
v 0 11 1
v 1 4 1
v 1 5 1
v 1 10 1
v 1 11 1
v -1 3 -0
v -1 4 -0
v 0 3 -0
v 0 4 -0
v -1 11 -1
v -1 12 -1
v 0 3 -1
v 0 4 -1
v 0 11 -1
v 0 12 -1
v 1 3 -1
v 1 4 -1
v 1 11 -1
v 1 12 -1
v -1 2 -2
v -1 3 -2
v -1 12 -2
v -1 13 -2
v 0 2 -2
v 0 3 -2
v 0 12 -2
v 0 13 -2
v 1 2 -2
v 1 3 -2
v 1 12 -2
v 1 13 -2
v -1 13 -3
v -1 14 -3
v 0 13 -3
v 0 14 -3
v 1 13 -3
v 1 14 -3
v -1 1 -4
v -1 2 -4
v -1 14 -4
v -1 15 -4
v 0 1 -4
v 0 2 -4
v 0 14 -4
v 0 15 -4
v 1 1 -4
v 1 2 -4
v 1 14 -4
v 1 15 -4
v -1 0 -5
v -1 1 -5
v -1 15 -5
v -1 16 -5
v 0 0 -5
v 0 1 -5
v 0 15 -5
v 0 16 -5
v 1 0 -5
v 1 1 -5
v -1 0 -4
v 0 0 -4
v 1 0 -4
v -1 0 -5
v 0 0 -5
v 1 0 -5
v -1 1 -2
v 0 1 -2
v 1 1 -2
v -1 1 -4
v 0 1 -4
v 1 1 -4
v -1 2 -0
v 0 2 -0
v 0 2 -1
v 1 2 -1
v -1 2 -2
v 0 2 -2
v 1 2 -2
v -1 3 2
v 0 3 2
v 0 3 1
v 1 3 1
v -1 3 -0
v 0 3 -0
v 0 3 -1
v 1 3 -1
v -1 4 4
v 0 4 4
v -1 4 2
v 0 4 2
v 1 4 2
v 0 4 1
v 1 4 1
v -1 5 5
v 0 5 5
v -1 5 4
v 0 5 4
v 1 5 4
v 0 5 2
v 1 5 2
v 0 6 5
v 1 6 5
v 0 6 4
v 1 6 4
v -1 8 4
v 0 8 4
v 1 8 4
v -1 8 3
v 0 8 3
v 1 8 3
v -1 9 3
v 0 9 3
v 1 9 3
v -1 9 2
v 0 9 2
v 1 9 2
v -1 10 2
v 0 10 2
v 1 10 2
v -1 10 1
v 0 10 1
v 1 10 1
v -1 11 1
v 0 11 1
v 0 11 -0
v 1 11 -0
v -1 11 -1
v 0 11 -1
v 1 11 -1
v -1 12 -1
v 0 12 -1
v 1 12 -1
v -1 12 -2
v 0 12 -2
v 1 12 -2
v -1 13 -2
v 0 13 -2
v 1 13 -2
v -1 13 -3
v 0 13 -3
v 1 13 -3
v -1 14 -3
v 0 14 -3
v 1 14 -3
v -1 14 -4
v 0 14 -4
v 1 14 -4
v -1 15 -4
v 0 15 -4
v -1 15 -5
v 0 15 -5
v -1 1 -4
v 0 1 -4
v 1 1 -4
v -1 1 -5
v 0 1 -5
v 1 1 -5
v -1 2 -2
v 0 2 -2
v 1 2 -2
v -1 2 -4
v 0 2 -4
v 1 2 -4
v -1 3 -0
v 0 3 -0
v 0 3 -1
v 1 3 -1
v -1 3 -2
v 0 3 -2
v 1 3 -2
v -1 4 2
v 0 4 2
v 0 4 1
v 1 4 1
v -1 4 -0
v 0 4 -0
v 0 4 -1
v 1 4 -1
v -1 5 4
v 0 5 4
v -1 5 2
v 0 5 2
v 1 5 2
v 0 5 1
v 1 5 1
v 0 6 4
v 1 6 4
v 0 6 2
v 1 6 2
v -1 8 5
v 0 8 5
v 1 8 5
v -1 8 4
v 0 8 4
v 1 8 4
v -1 9 4
v 0 9 4
v 1 9 4
v -1 9 3
v 0 9 3
v 1 9 3
v -1 10 3
v 0 10 3
v 1 10 3
v -1 10 2
v 0 10 2
v 1 10 2
v -1 11 2
v 0 11 2
v 1 11 2
v -1 11 1
v 0 11 1
v 1 11 1
v -1 12 1
v 0 12 1
v 0 12 -0
v 1 12 -0
v -1 12 -1
v 0 12 -1
v 1 12 -1
v -1 13 -1
v 0 13 -1
v 1 13 -1
v -1 13 -2
v 0 13 -2
v 1 13 -2
v -1 14 -2
v 0 14 -2
v 1 14 -2
v -1 14 -3
v 0 14 -3
v 1 14 -3
v -1 15 -3
v 0 15 -3
v 1 15 -3
v -1 15 -4
v 0 15 -4
v 1 15 -4
v -1 16 -4
v 0 16 -4
v -1 16 -5
v 0 16 -5

# faces
f 4/2/1 2/2/1 1/2/1
f 5/2/1 2/2/1 4/2/1
f 7/2/1 4/2/1 3/2/1
f 8/2/1 4/2/1 7/2/1
f 10/2/1 7/2/1 6/2/1
f 11/2/1 7/2/1 10/2/1
f 13/2/1 10/2/1 9/2/1
f 14/2/1 10/2/1 13/2/1
f 16/2/1 13/2/1 12/2/1
f 17/2/1 13/2/1 16/2/1
f 18/2/1 16/2/1 15/2/1
f 19/2/1 16/2/1 18/2/1
f 21/2/1 20/2/1 19/2/1
f 22/2/1 20/2/1 21/2/1
f 24/2/1 23/2/1 22/2/1
f 25/2/1 23/2/1 24/2/1
f 27/2/1 26/2/1 25/2/1
f 28/2/1 26/2/1 27/2/1
f 30/2/1 29/2/1 28/2/1
f 31/2/1 29/2/1 30/2/1
f 33/2/1 32/2/1 31/2/1
f 34/2/1 32/2/1 33/2/1
f 36/2/1 35/2/1 34/2/1
f 37/2/1 35/2/1 36/2/1
f 39/2/1 38/2/1 37/2/1
f 40/2/1 38/2/1 39/2/1
f 42/2/1 41/2/1 40/2/1
f 43/2/1 41/2/1 42/2/1
f 48/1/1 45/1/1 44/1/1
f 49/1/1 45/1/1 48/1/1
f 51/1/1 47/1/1 46/1/1
f 52/1/1 47/1/1 51/1/1
f 53/1/1 51/1/1 50/1/1
f 54/1/1 51/1/1 53/1/1
f 55/2/2 56/2/2 59/2/2
f 59/2/2 56/2/2 60/2/2
f 57/2/2 58/2/2 62/2/2
f 62/2/2 58/2/2 63/2/2
f 61/2/2 62/2/2 65/2/2
f 65/2/2 62/2/2 66/2/2
f 64/2/2 65/2/2 67/2/2
f 67/2/2 65/2/2 68/2/2
f 69/2/2 70/2/2 71/2/2
f 71/2/2 70/2/2 72/2/2
f 73/2/2 74/2/2 75/2/2
f 75/2/2 74/2/2 76/2/2
f 77/1/2 78/1/2 80/1/2
f 80/1/2 78/1/2 81/1/2
f 79/1/2 80/1/2 83/1/2
f 83/1/2 80/1/2 84/1/2
f 82/1/2 83/1/2 86/1/2
f 86/1/2 83/1/2 87/1/2
f 85/1/2 86/1/2 89/1/2
f 89/1/2 86/1/2 90/1/2
f 88/1/2 89/1/2 92/1/2
f 92/1/2 89/1/2 93/1/2
f 91/1/2 92/1/2 95/1/2
f 95/1/2 92/1/2 96/1/2
f 94/1/2 95/1/2 97/1/2
f 97/1/2 95/1/2 98/1/2
f 98/1/2 99/1/2 100/1/2
f 100/1/2 99/1/2 101/1/2
f 101/1/2 102/1/2 103/1/2
f 103/1/2 102/1/2 104/1/2
f 104/1/2 105/1/2 106/1/2
f 106/1/2 105/1/2 107/1/2
f 108/1/2 109/1/2 110/1/2
f 110/1/2 109/1/2 111/1/2
f 111/1/2 112/1/2 113/1/2
f 113/1/2 112/1/2 114/1/2
f 114/1/2 115/1/2 116/1/2
f 116/1/2 115/1/2 117/1/2
f 117/1/2 118/1/2 119/1/2
f 119/1/2 118/1/2 120/1/2
f 123/2/3 122/2/3 121/2/3
f 124/2/3 122/2/3 123/2/3
f 125/2/3 122/2/3 124/2/3
f 126/1/3 125/1/3 124/1/3
f 127/1/3 125/1/3 126/1/3
f 132/2/3 129/2/3 128/2/3
f 133/2/3 129/2/3 132/2/3
f 135/2/3 131/2/3 130/2/3
f 136/2/3 131/2/3 135/2/3
f 137/1/3 134/1/3 133/1/3
f 138/1/3 134/1/3 137/1/3
f 139/1/3 136/1/3 135/1/3
f 140/1/3 136/1/3 139/1/3
f 143/2/3 142/2/3 141/2/3
f 144/2/3 142/2/3 143/2/3
f 145/1/3 144/1/3 143/1/3
f 146/1/3 144/1/3 145/1/3
f 151/2/3 148/2/3 147/2/3
f 152/2/3 148/2/3 151/2/3
f 154/2/3 150/2/3 149/2/3
f 155/2/3 150/2/3 154/2/3
f 156/1/3 153/1/3 152/1/3
f 157/1/3 153/1/3 156/1/3
f 158/1/3 155/1/3 154/1/3
f 159/1/3 155/1/3 158/1/3
f 164/2/3 161/2/3 160/2/3
f 165/2/3 161/2/3 164/2/3
f 166/1/3 163/1/3 162/1/3
f 167/1/3 163/1/3 166/1/3
f 170/2/3 169/2/3 168/2/3
f 171/2/3 169/2/3 170/2/3
f 174/1/3 173/1/3 172/1/3
f 175/1/3 173/1/3 174/1/3
f 180/2/3 177/2/3 176/2/3
f 181/2/3 177/2/3 180/2/3
f 182/1/3 179/1/3 178/1/3
f 183/1/3 179/1/3 182/1/3
f 184/1/3 181/1/3 180/1/3
f 185/1/3 181/1/3 184/1/3
f 190/2/3 187/2/3 186/2/3
f 191/2/3 187/2/3 190/2/3
f 192/2/3 189/2/3 188/2/3
f 193/2/3 189/2/3 192/2/3
f 194/1/3 191/1/3 190/1/3
f 195/1/3 191/1/3 194/1/3
f 196/1/3 193/1/3 192/1/3
f 197/1/3 193/1/3 196/1/3
f 200/2/3 199/2/3 198/2/3
f 201/2/3 199/2/3 200/2/3
f 202/1/3 201/1/3 200/1/3
f 203/1/3 201/1/3 202/1/3
f 208/2/3 205/2/3 204/2/3
f 209/2/3 205/2/3 208/2/3
f 210/2/3 207/2/3 206/2/3
f 211/2/3 207/2/3 210/2/3
f 212/1/3 209/1/3 208/1/3
f 213/1/3 209/1/3 212/1/3
f 214/2/4 215/2/4 216/2/4
f 216/2/4 215/2/4 217/2/4
f 217/2/4 215/2/4 218/2/4
f 217/1/4 218/1/4 219/1/4
f 219/1/4 218/1/4 220/1/4
f 221/2/4 222/2/4 223/2/4
f 223/2/4 222/2/4 224/2/4
f 223/1/4 224/1/4 225/1/4
f 225/1/4 224/1/4 226/1/4
f 227/2/4 228/2/4 231/2/4
f 231/2/4 228/2/4 232/2/4
f 229/2/4 230/2/4 234/2/4
f 234/2/4 230/2/4 235/2/4
f 232/1/4 233/1/4 236/1/4
f 236/1/4 233/1/4 237/1/4
f 234/1/4 235/1/4 238/1/4
f 238/1/4 235/1/4 239/1/4
f 240/2/4 241/2/4 244/2/4
f 244/2/4 241/2/4 245/2/4
f 242/1/4 243/1/4 246/1/4
f 246/1/4 243/1/4 247/1/4
f 244/1/4 245/1/4 248/1/4
f 248/1/4 245/1/4 249/1/4
f 250/2/4 251/2/4 252/2/4
f 252/2/4 251/2/4 253/2/4
f 254/2/4 255/2/4 258/2/4
f 258/2/4 255/2/4 259/2/4
f 256/1/4 257/1/4 260/1/4
f 260/1/4 257/1/4 261/1/4
f 258/1/4 259/1/4 262/1/4
f 262/1/4 259/1/4 263/1/4
f 264/2/4 265/2/4 268/2/4
f 268/2/4 265/2/4 269/2/4
f 266/2/4 267/2/4 270/2/4
f 270/2/4 267/2/4 271/2/4
f 268/1/4 269/1/4 272/1/4
f 272/1/4 269/1/4 273/1/4
f 270/1/4 271/1/4 274/1/4
f 274/1/4 271/1/4 275/1/4
f 276/2/4 277/2/4 278/2/4
f 278/2/4 277/2/4 279/2/4
f 278/1/4 279/1/4 280/1/4
f 280/1/4 279/1/4 281/1/4
f 282/2/4 283/2/4 286/2/4
f 286/2/4 283/2/4 287/2/4
f 284/2/4 285/2/4 288/2/4
f 288/2/4 285/2/4 289/2/4
f 286/1/4 287/1/4 290/1/4
f 290/1/4 287/1/4 291/1/4
f 288/1/4 289/1/4 292/1/4
f 292/1/4 289/1/4 293/1/4
f 294/2/4 295/2/4 298/2/4
f 298/2/4 295/2/4 299/2/4
f 296/2/4 297/2/4 300/2/4
f 300/2/4 297/2/4 301/2/4
f 298/1/4 299/1/4 302/1/4
f 302/1/4 299/1/4 303/1/4
f 307/2/5 305/2/5 304/2/5
f 308/1/5 306/1/5 305/1/5
f 308/2/5 305/2/5 307/2/5
f 309/1/5 306/1/5 308/1/5
f 313/2/5 311/2/5 310/2/5
f 314/1/5 312/1/5 311/1/5
f 314/2/5 311/2/5 313/2/5
f 315/1/5 312/1/5 314/1/5
f 318/2/5 317/2/5 316/2/5
f 320/2/5 318/2/5 316/2/5
f 321/1/5 319/1/5 318/1/5
f 321/2/5 318/2/5 320/2/5
f 322/1/5 319/1/5 321/1/5
f 325/2/5 324/2/5 323/2/5
f 327/2/5 325/2/5 323/2/5
f 328/1/5 326/1/5 325/1/5
f 328/2/5 325/2/5 327/2/5
f 329/1/5 326/1/5 328/1/5
f 330/1/5 326/1/5 329/1/5
f 333/2/5 332/2/5 331/2/5
f 334/2/5 332/2/5 333/2/5
f 336/1/5 335/1/5 334/1/5
f 337/1/5 335/1/5 336/1/5
f 340/2/5 339/2/5 338/2/5
f 341/2/5 339/2/5 340/2/5
f 343/1/5 342/1/5 341/1/5
f 344/1/5 342/1/5 343/1/5
f 347/1/5 346/1/5 345/1/5
f 348/1/5 346/1/5 347/1/5
f 352/2/5 350/2/5 349/2/5
f 353/1/5 351/1/5 350/1/5
f 353/2/5 350/2/5 352/2/5
f 354/1/5 351/1/5 353/1/5
f 358/2/5 356/2/5 355/2/5
f 359/1/5 357/1/5 356/1/5
f 359/2/5 356/2/5 358/2/5
f 360/1/5 357/1/5 359/1/5
f 364/2/5 362/2/5 361/2/5
f 365/1/5 363/1/5 362/1/5
f 365/2/5 362/2/5 364/2/5
f 366/1/5 363/1/5 365/1/5
f 369/2/5 368/2/5 367/2/5
f 371/2/5 369/2/5 367/2/5
f 372/1/5 370/1/5 369/1/5
f 372/2/5 369/2/5 371/2/5
f 373/1/5 370/1/5 372/1/5
f 377/2/5 375/2/5 374/2/5
f 378/1/5 376/1/5 375/1/5
f 378/2/5 375/2/5 377/2/5
f 379/1/5 376/1/5 378/1/5
f 383/2/5 381/2/5 380/2/5
f 384/1/5 382/1/5 381/1/5
f 384/2/5 381/2/5 383/2/5
f 385/1/5 382/1/5 384/1/5
f 389/2/5 387/2/5 386/2/5
f 390/1/5 388/1/5 387/1/5
f 390/2/5 387/2/5 389/2/5
f 391/1/5 388/1/5 390/1/5
f 394/2/5 393/2/5 392/2/5
f 395/2/5 393/2/5 394/2/5
f 396/2/6 397/2/6 399/2/6
f 397/1/6 398/1/6 400/1/6
f 399/2/6 397/2/6 400/2/6
f 400/1/6 398/1/6 401/1/6
f 402/2/6 403/2/6 405/2/6
f 403/1/6 404/1/6 406/1/6
f 405/2/6 403/2/6 406/2/6
f 406/1/6 404/1/6 407/1/6
f 408/2/6 409/2/6 410/2/6
f 408/2/6 410/2/6 412/2/6
f 410/1/6 411/1/6 413/1/6
f 412/2/6 410/2/6 413/2/6
f 413/1/6 411/1/6 414/1/6
f 415/2/6 416/2/6 417/2/6
f 415/2/6 417/2/6 419/2/6
f 417/1/6 418/1/6 420/1/6
f 419/2/6 417/2/6 420/2/6
f 420/1/6 418/1/6 421/1/6
f 421/1/6 418/1/6 422/1/6
f 423/2/6 424/2/6 425/2/6
f 425/2/6 424/2/6 426/2/6
f 426/1/6 427/1/6 428/1/6
f 428/1/6 427/1/6 429/1/6
f 430/1/6 431/1/6 432/1/6
f 432/1/6 431/1/6 433/1/6
f 434/2/6 435/2/6 437/2/6
f 435/1/6 436/1/6 438/1/6
f 437/2/6 435/2/6 438/2/6
f 438/1/6 436/1/6 439/1/6
f 440/2/6 441/2/6 443/2/6
f 441/1/6 442/1/6 444/1/6
f 443/2/6 441/2/6 444/2/6
f 444/1/6 442/1/6 445/1/6
f 446/2/6 447/2/6 449/2/6
f 447/1/6 448/1/6 450/1/6
f 449/2/6 447/2/6 450/2/6
f 450/1/6 448/1/6 451/1/6
f 452/2/6 453/2/6 455/2/6
f 453/1/6 454/1/6 456/1/6
f 455/2/6 453/2/6 456/2/6
f 456/1/6 454/1/6 457/1/6
f 458/2/6 459/2/6 460/2/6
f 458/2/6 460/2/6 462/2/6
f 460/1/6 461/1/6 463/1/6
f 462/2/6 460/2/6 463/2/6
f 463/1/6 461/1/6 464/1/6
f 465/2/6 466/2/6 468/2/6
f 466/1/6 467/1/6 469/1/6
f 468/2/6 466/2/6 469/2/6
f 469/1/6 467/1/6 470/1/6
f 471/2/6 472/2/6 474/2/6
f 472/1/6 473/1/6 475/1/6
f 474/2/6 472/2/6 475/2/6
f 475/1/6 473/1/6 476/1/6
f 477/2/6 478/2/6 480/2/6
f 478/1/6 479/1/6 481/1/6
f 480/2/6 478/2/6 481/2/6
f 481/1/6 479/1/6 482/1/6
f 483/2/6 484/2/6 485/2/6
f 485/2/6 484/2/6 486/2/6
