# MagicaVoxel @ Ephtracy

# group
g Spider-1

# material
mtllib Spider-1.mtl
usemtl palette

# normals
vn -1 0 0
vn 1 0 0
vn 0 0 1
vn 0 0 -1
vn 0 -1 0
vn 0 1 0

# texcoords
vt 0.00195313 0.5
vt 0.142578 0.5
vt 0.173828 0.5
vt 0.236328 0.5

# verts
v -6 14 -3
v -6 14 -4
v -6 17 -3
v -6 17 -4
v -5 14 -2
v -5 14 -3
v -5 15 -2
v -5 15 -3
v -5 16 -2
v -5 16 -3
v -5 17 -2
v -5 17 -3
v -5 17 -4
v -5 18 -3
v -5 18 -4
v -4 14 -0
v -4 14 -2
v -4 15 -0
v -4 15 -1
v -4 15 -2
v -4 16 -1
v -4 16 -2
v -4 17 -1
v -4 17 -2
v -4 17 -3
v -4 18 -2
v -4 18 -3
v -4 18 -4
v -4 19 -3
v -4 19 -4
v -3 18 -2
v -3 18 -3
v -3 19 -2
v -3 19 -3
v -2 0 -2
v -2 0 -3
v -2 0 -5
v -2 1 -0
v -2 1 -2
v -2 2 2
v -2 2 -0
v -2 4 3
v -2 4 2
v -2 6 3
v -2 6 -3
v -2 6 -5
v -1 0 -1
v -1 0 -2
v -1 1 1
v -1 1 -0
v -1 1 -1
v -1 1 -2
v -1 2 1
v -1 2 -0
v -1 3 3
v -1 3 2
v -1 4 3
v -1 4 2
v -1 5 4
v -1 5 3
v -1 6 4
v -1 6 3
v 2 14 -0
v 2 14 -3
v 2 15 -0
v 2 15 -1
v 2 16 -1
v 2 16 -2
v 2 17 -1
v 2 17 -2
v 2 17 -3
v 2 18 -2
v 2 18 -3
v 2 19 -2
v 2 19 -3
v 3 18 -3
v 3 18 -4
v 3 19 -3
v 3 19 -4
v 4 17 -3
v 4 17 -4
v 4 18 -3
v 4 18 -4
v 5 14 -3
v 5 14 -4
v 5 15 -3
v 5 16 -3
v 5 17 -3
v 5 17 -4
v -5 14 -3
v -5 14 -4
v -5 15 -3
v -5 16 -3
v -5 17 -3
v -5 17 -4
v -4 17 -3
v -4 17 -4
v -4 18 -3
v -4 18 -4
v -3 18 -3
v -3 18 -4
v -3 19 -3
v -3 19 -4
v -2 14 -0
v -2 14 -3
v -2 15 -0
v -2 15 -1
v -2 16 -1
v -2 16 -2
v -2 17 -1
v -2 17 -2
v -2 17 -3
v -2 18 -2
v -2 18 -3
v -2 19 -2
v -2 19 -3
v 1 0 -1
v 1 0 -2
v 1 1 1
v 1 1 -0
v 1 1 -1
v 1 1 -2
v 1 2 1
v 1 2 -0
v 1 3 3
v 1 3 2
v 1 4 3
v 1 4 2
v 1 5 4
v 1 5 3
v 1 6 4
v 1 6 3
v 2 0 -2
v 2 0 -3
v 2 0 -5
v 2 1 -0
v 2 1 -2
v 2 2 2
v 2 2 -0
v 2 4 3
v 2 4 2
v 2 6 3
v 2 6 -3
v 2 6 -5
v 3 18 -2
v 3 18 -3
v 3 19 -2
v 3 19 -3
v 4 14 -0
v 4 14 -2
v 4 15 -0
v 4 15 -1
v 4 15 -2
v 4 16 -1
v 4 16 -2
v 4 17 -1
v 4 17 -2
v 4 17 -3
v 4 18 -2
v 4 18 -3
v 4 18 -4
v 4 19 -3
v 4 19 -4
v 5 14 -2
v 5 14 -3
v 5 15 -2
v 5 15 -3
v 5 16 -2
v 5 16 -3
v 5 17 -2
v 5 17 -3
v 5 17 -4
v 5 18 -3
v 5 18 -4
v 6 14 -3
v 6 14 -4
v 6 17 -3
v 6 17 -4
v -1 5 4
v -1 6 4
v 1 5 4
v 1 6 4
v -2 4 3
v -2 6 3
v -1 3 3
v -1 4 3
v -1 5 3
v -1 6 3
v 1 3 3
v 1 4 3
v 1 5 3
v 1 6 3
v 2 4 3
v 2 6 3
v -2 2 2
v -2 4 2
v -1 2 2
v -1 3 2
v -1 4 2
v 1 2 2
v 1 3 2
v 1 4 2
v 2 2 2
v 2 4 2
v -1 1 1
v -1 2 1
v 1 1 1
v 1 2 1
v -4 14 -0
v -4 15 -0
v -2 1 -0
v -2 2 -0
v -2 14 -0
v -2 15 -0
v -1 1 -0
v -1 2 -0
v 1 1 -0
v 1 2 -0
v 2 1 -0
v 2 2 -0
v 2 14 -0
v 2 15 -0
v 4 14 -0
v 4 15 -0
v -4 15 -1
v -4 16 -1
v -4 17 -1
v -3 15 -1
v -3 16 -1
v -3 17 -1
v -2 15 -1
v -2 16 -1
v -2 17 -1
v -1 0 -1
v -1 1 -1
v 1 0 -1
v 1 1 -1
v 2 15 -1
v 2 16 -1
v 2 17 -1
v 3 15 -1
v 3 16 -1
v 3 17 -1
v 4 15 -1
v 4 16 -1
v 4 17 -1
v -5 14 -2
v -5 15 -2
v -5 16 -2
v -5 17 -2
v -4 14 -2
v -4 15 -2
v -4 16 -2
v -4 17 -2
v -4 18 -2
v -3 17 -2
v -3 18 -2
v -3 19 -2
v -2 0 -2
v -2 1 -2
v -2 17 -2
v -2 18 -2
v -2 19 -2
v -1 0 -2
v -1 1 -2
v 1 0 -2
v 1 1 -2
v 2 0 -2
v 2 1 -2
v 2 17 -2
v 2 18 -2
v 2 19 -2
v 3 17 -2
v 3 18 -2
v 3 19 -2
v 4 14 -2
v 4 15 -2
v 4 16 -2
v 4 17 -2
v 4 18 -2
v 5 14 -2
v 5 15 -2
v 5 16 -2
v 5 17 -2
v -6 14 -3
v -6 17 -3
v -5 14 -3
v -5 15 -3
v -5 16 -3
v -5 17 -3
v -5 18 -3
v -4 17 -3
v -4 18 -3
v -4 19 -3
v -3 18 -3
v -3 19 -3
v 3 18 -3
v 3 19 -3
v 4 17 -3
v 4 18 -3
v 4 19 -3
v 5 14 -3
v 5 15 -3
v 5 16 -3
v 5 17 -3
v 5 18 -3
v 6 14 -3
v 6 17 -3
v -5 14 -3
v -5 15 -3
v -5 16 -3
v -5 17 -3
v -4 15 -3
v -4 16 -3
v -4 17 -3
v -4 18 -3
v -3 17 -3
v -3 18 -3
v -3 19 -3
v -2 14 -3
v -2 17 -3
v -2 18 -3
v -2 19 -3
v 2 14 -3
v 2 17 -3
v 2 18 -3
v 2 19 -3
v 3 17 -3
v 3 18 -3
v 3 19 -3
v 4 15 -3
v 4 16 -3
v 4 17 -3
v 4 18 -3
v 5 14 -3
v 5 15 -3
v 5 16 -3
v 5 17 -3
v -6 14 -4
v -6 17 -4
v -5 14 -4
v -5 17 -4
v -5 18 -4
v -4 17 -4
v -4 18 -4
v -4 19 -4
v -3 18 -4
v -3 19 -4
v 3 18 -4
v 3 19 -4
v 4 17 -4
v 4 18 -4
v 4 19 -4
v 5 14 -4
v 5 17 -4
v 5 18 -4
v 6 14 -4
v 6 17 -4
v -2 0 -5
v -2 6 -5
v 2 0 -5
v 2 6 -5
v -1 0 -1
v 1 0 -1
v -2 0 -2
v -1 0 -2
v 1 0 -2
v 2 0 -2
v -2 0 -3
v -1 0 -3
v 1 0 -3
v 2 0 -3
v -2 0 -5
v 2 0 -5
v -1 1 1
v 1 1 1
v -2 1 -0
v -1 1 -0
v 1 1 -0
v 2 1 -0
v -1 1 -1
v 1 1 -1
v -2 1 -2
v -1 1 -2
v 1 1 -2
v 2 1 -2
v -2 2 2
v -1 2 2
v 1 2 2
v 2 2 2
v -1 2 1
v 1 2 1
v -2 2 -0
v -1 2 -0
v 1 2 -0
v 2 2 -0
v -1 3 3
v 1 3 3
v -1 3 2
v 1 3 2
v -2 4 3
v -1 4 3
v 1 4 3
v 2 4 3
v -2 4 2
v -1 4 2
v 1 4 2
v 2 4 2
v -1 5 4
v 1 5 4
v -1 5 3
v 1 5 3
v -4 14 -0
v -2 14 -0
v 2 14 -0
v 4 14 -0
v -5 14 -2
v -4 14 -2
v 4 14 -2
v 5 14 -2
v -6 14 -3
v -5 14 -3
v -2 14 -3
v 2 14 -3
v 5 14 -3
v 6 14 -3
v -6 14 -4
v -5 14 -4
v 5 14 -4
v 6 14 -4
v -5 17 -3
v -4 17 -3
v 4 17 -3
v 5 17 -3
v -5 17 -4
v -4 17 -4
v 4 17 -4
v 5 17 -4
v -4 18 -3
v -3 18 -3
v 3 18 -3
v 4 18 -3
v -4 18 -4
v -3 18 -4
v 3 18 -4
v 4 18 -4
v -1 6 4
v 1 6 4
v -2 6 3
v -1 6 3
v 1 6 3
v 2 6 3
v -2 6 -3
v -1 6 -3
v 1 6 -3
v 2 6 -3
v -2 6 -5
v 2 6 -5
v -4 15 -0
v -2 15 -0
v 2 15 -0
v 4 15 -0
v -4 15 -1
v -3 15 -1
v -2 15 -1
v 2 15 -1
v 3 15 -1
v 4 15 -1
v -4 17 -1
v -3 17 -1
v -2 17 -1
v 2 17 -1
v 3 17 -1
v 4 17 -1
v -5 17 -2
v -4 17 -2
v -3 17 -2
v -2 17 -2
v 2 17 -2
v 3 17 -2
v 4 17 -2
v 5 17 -2
v -6 17 -3
v -5 17 -3
v -4 17 -3
v 4 17 -3
v 5 17 -3
v 6 17 -3
v -6 17 -4
v -5 17 -4
v 5 17 -4
v 6 17 -4
v -4 18 -2
v -3 18 -2
v 3 18 -2
v 4 18 -2
v -5 18 -3
v -4 18 -3
v -3 18 -3
v 3 18 -3
v 4 18 -3
v 5 18 -3
v -5 18 -4
v -4 18 -4
v 4 18 -4
v 5 18 -4
v -3 19 -2
v -2 19 -2
v 2 19 -2
v 3 19 -2
v -4 19 -3
v -3 19 -3
v -2 19 -3
v 2 19 -3
v 3 19 -3
v 4 19 -3
v -4 19 -4
v -3 19 -4
v 3 19 -4
v 4 19 -4

# faces
f 3/1/1 2/1/1 1/1/1
f 4/1/1 2/1/1 3/1/1
f 7/1/1 6/1/1 5/1/1
f 8/1/1 6/1/1 7/1/1
f 9/4/1 8/4/1 7/4/1
f 10/4/1 8/4/1 9/4/1
f 11/2/1 10/2/1 9/2/1
f 12/2/1 10/2/1 11/2/1
f 14/1/1 13/1/1 12/1/1
f 15/1/1 13/1/1 14/1/1
f 18/1/1 17/1/1 16/1/1
f 19/1/1 17/1/1 18/1/1
f 20/1/1 17/1/1 19/1/1
f 21/2/1 20/2/1 19/2/1
f 22/2/1 20/2/1 21/2/1
f 23/4/1 22/4/1 21/4/1
f 24/4/1 22/4/1 23/4/1
f 26/2/1 25/2/1 24/2/1
f 27/2/1 25/2/1 26/2/1
f 29/1/1 28/1/1 27/1/1
f 30/1/1 28/1/1 29/1/1
f 33/1/1 32/1/1 31/1/1
f 34/1/1 32/1/1 33/1/1
f 39/3/1 36/3/1 35/3/1
f 41/3/1 39/3/1 38/3/1
f 43/3/1 41/3/1 40/3/1
f 44/3/1 43/3/1 42/3/1
f 45/1/1 37/1/1 36/1/1
f 45/3/1 43/3/1 44/3/1
f 45/3/1 36/3/1 39/3/1
f 45/3/1 41/3/1 43/3/1
f 45/3/1 39/3/1 41/3/1
f 46/1/1 37/1/1 45/1/1
f 51/1/1 48/1/1 47/1/1
f 52/1/1 48/1/1 51/1/1
f 53/1/1 50/1/1 49/1/1
f 54/1/1 50/1/1 53/1/1
f 57/1/1 56/1/1 55/1/1
f 58/1/1 56/1/1 57/1/1
f 61/3/1 60/3/1 59/3/1
f 62/3/1 60/3/1 61/3/1
f 65/1/1 64/1/1 63/1/1
f 66/1/1 64/1/1 65/1/1
f 67/1/1 64/1/1 66/1/1
f 68/1/1 64/1/1 67/1/1
f 69/2/1 68/2/1 67/2/1
f 70/1/1 64/1/1 68/1/1
f 70/2/1 68/2/1 69/2/1
f 71/1/1 64/1/1 70/1/1
f 72/4/1 71/4/1 70/4/1
f 73/4/1 71/4/1 72/4/1
f 74/1/1 73/1/1 72/1/1
f 75/1/1 73/1/1 74/1/1
f 78/1/1 77/1/1 76/1/1
f 79/1/1 77/1/1 78/1/1
f 82/1/1 81/1/1 80/1/1
f 83/1/1 81/1/1 82/1/1
f 86/1/1 85/1/1 84/1/1
f 87/1/1 85/1/1 86/1/1
f 88/1/1 85/1/1 87/1/1
f 89/1/1 85/1/1 88/1/1
f 90/1/2 91/1/2 92/1/2
f 92/1/2 91/1/2 93/1/2
f 93/1/2 91/1/2 94/1/2
f 94/1/2 91/1/2 95/1/2
f 96/1/2 97/1/2 98/1/2
f 98/1/2 97/1/2 99/1/2
f 100/1/2 101/1/2 102/1/2
f 102/1/2 101/1/2 103/1/2
f 104/1/2 105/1/2 106/1/2
f 106/1/2 105/1/2 107/1/2
f 107/1/2 105/1/2 108/1/2
f 108/1/2 105/1/2 109/1/2
f 108/2/2 109/2/2 110/2/2
f 109/1/2 105/1/2 111/1/2
f 110/2/2 109/2/2 111/2/2
f 111/1/2 105/1/2 112/1/2
f 111/4/2 112/4/2 113/4/2
f 113/4/2 112/4/2 114/4/2
f 113/1/2 114/1/2 115/1/2
f 115/1/2 114/1/2 116/1/2
f 117/1/2 118/1/2 121/1/2
f 121/1/2 118/1/2 122/1/2
f 119/1/2 120/1/2 123/1/2
f 123/1/2 120/1/2 124/1/2
f 125/1/2 126/1/2 127/1/2
f 127/1/2 126/1/2 128/1/2
f 129/3/2 130/3/2 131/3/2
f 131/3/2 130/3/2 132/3/2
f 133/3/2 134/3/2 137/3/2
f 136/3/2 137/3/2 139/3/2
f 138/3/2 139/3/2 141/3/2
f 140/3/2 141/3/2 142/3/2
f 134/1/2 135/1/2 143/1/2
f 142/3/2 141/3/2 143/3/2
f 137/3/2 134/3/2 143/3/2
f 141/3/2 139/3/2 143/3/2
f 139/3/2 137/3/2 143/3/2
f 143/1/2 135/1/2 144/1/2
f 145/1/2 146/1/2 147/1/2
f 147/1/2 146/1/2 148/1/2
f 149/1/2 150/1/2 151/1/2
f 151/1/2 150/1/2 152/1/2
f 152/1/2 150/1/2 153/1/2
f 152/2/2 153/2/2 154/2/2
f 154/2/2 153/2/2 155/2/2
f 154/4/2 155/4/2 156/4/2
f 156/4/2 155/4/2 157/4/2
f 157/2/2 158/2/2 159/2/2
f 159/2/2 158/2/2 160/2/2
f 160/1/2 161/1/2 162/1/2
f 162/1/2 161/1/2 163/1/2
f 164/1/2 165/1/2 166/1/2
f 166/1/2 165/1/2 167/1/2
f 166/4/2 167/4/2 168/4/2
f 168/4/2 167/4/2 169/4/2
f 168/2/2 169/2/2 170/2/2
f 170/2/2 169/2/2 171/2/2
f 171/1/2 172/1/2 173/1/2
f 173/1/2 172/1/2 174/1/2
f 175/1/2 176/1/2 177/1/2
f 177/1/2 176/1/2 178/1/2
f 181/3/3 180/3/3 179/3/3
f 182/3/3 180/3/3 181/3/3
f 186/3/3 184/3/3 183/3/3
f 187/3/3 184/3/3 186/3/3
f 188/3/3 184/3/3 187/3/3
f 189/1/3 186/1/3 185/1/3
f 189/1/3 187/1/3 186/1/3
f 190/1/3 187/1/3 189/1/3
f 191/1/3 187/1/3 190/1/3
f 193/3/3 192/3/3 191/3/3
f 193/3/3 191/3/3 190/3/3
f 194/3/3 192/3/3 193/3/3
f 197/3/3 196/3/3 195/3/3
f 198/3/3 196/3/3 197/3/3
f 199/3/3 196/3/3 198/3/3
f 200/1/3 198/1/3 197/1/3
f 201/1/3 198/1/3 200/1/3
f 203/3/3 201/3/3 200/3/3
f 203/3/3 202/3/3 201/3/3
f 204/3/3 202/3/3 203/3/3
f 207/1/3 206/1/3 205/1/3
f 208/1/3 206/1/3 207/1/3
f 213/1/3 210/1/3 209/1/3
f 214/1/3 210/1/3 213/1/3
f 215/3/3 212/3/3 211/3/3
f 216/3/3 212/3/3 215/3/3
f 219/3/3 218/3/3 217/3/3
f 220/3/3 218/3/3 219/3/3
f 223/1/3 222/1/3 221/1/3
f 224/1/3 222/1/3 223/1/3
f 228/2/3 226/2/3 225/2/3
f 229/4/3 227/4/3 226/4/3
f 229/2/3 226/2/3 228/2/3
f 230/4/3 227/4/3 229/4/3
f 231/1/3 229/1/3 228/1/3
f 232/2/3 230/2/3 229/2/3
f 232/1/3 229/1/3 231/1/3
f 233/2/3 230/2/3 232/2/3
f 236/1/3 235/1/3 234/1/3
f 237/1/3 235/1/3 236/1/3
f 241/1/3 239/1/3 238/1/3
f 242/2/3 240/2/3 239/2/3
f 242/1/3 239/1/3 241/1/3
f 243/2/3 240/2/3 242/2/3
f 244/2/3 242/2/3 241/2/3
f 245/4/3 243/4/3 242/4/3
f 245/2/3 242/2/3 244/2/3
f 246/4/3 243/4/3 245/4/3
f 251/1/3 248/1/3 247/1/3
f 252/4/3 249/4/3 248/4/3
f 252/1/3 248/1/3 251/1/3
f 253/2/3 250/2/3 249/2/3
f 253/4/3 249/4/3 252/4/3
f 254/2/3 250/2/3 253/2/3
f 256/2/3 255/2/3 254/2/3
f 257/2/3 255/2/3 256/2/3
f 261/4/3 257/4/3 256/4/3
f 262/1/3 258/1/3 257/1/3
f 262/4/3 257/4/3 261/4/3
f 263/1/3 258/1/3 262/1/3
f 264/3/3 260/3/3 259/3/3
f 265/3/3 260/3/3 264/3/3
f 268/3/3 267/3/3 266/3/3
f 269/3/3 267/3/3 268/3/3
f 273/4/3 271/4/3 270/4/3
f 274/1/3 272/1/3 271/1/3
f 274/4/3 271/4/3 273/4/3
f 275/1/3 272/1/3 274/1/3
f 279/2/3 274/2/3 273/2/3
f 280/2/3 274/2/3 279/2/3
f 281/1/3 277/1/3 276/1/3
f 282/4/3 278/4/3 277/4/3
f 282/1/3 277/1/3 281/1/3
f 283/2/3 279/2/3 278/2/3
f 283/4/3 278/4/3 282/4/3
f 284/2/3 279/2/3 283/2/3
f 287/1/3 286/1/3 285/1/3
f 288/1/3 286/1/3 287/1/3
f 289/1/3 286/1/3 288/1/3
f 290/1/3 286/1/3 289/1/3
f 292/1/3 291/1/3 290/1/3
f 293/1/3 291/1/3 292/1/3
f 295/1/3 294/1/3 293/1/3
f 296/1/3 294/1/3 295/1/3
f 300/1/3 298/1/3 297/1/3
f 301/1/3 298/1/3 300/1/3
f 305/1/3 300/1/3 299/1/3
f 306/1/3 300/1/3 305/1/3
f 307/1/3 304/1/3 303/1/3
f 307/1/3 303/1/3 302/1/3
f 307/1/3 305/1/3 304/1/3
f 308/1/3 305/1/3 307/1/3
f 309/1/4 310/1/4 313/1/4
f 310/4/4 311/4/4 313/4/4
f 311/2/4 312/2/4 314/2/4
f 313/4/4 311/4/4 314/4/4
f 314/2/4 312/2/4 315/2/4
f 313/1/4 314/1/4 317/1/4
f 315/2/4 316/2/4 317/2/4
f 314/1/4 315/1/4 317/1/4
f 317/2/4 316/2/4 318/2/4
f 309/1/4 313/1/4 320/1/4
f 313/1/4 317/1/4 320/1/4
f 317/4/4 318/4/4 321/4/4
f 320/1/4 317/1/4 321/1/4
f 318/1/4 319/1/4 322/1/4
f 321/4/4 318/4/4 322/4/4
f 322/1/4 319/1/4 323/1/4
f 324/1/4 325/1/4 328/1/4
f 325/4/4 326/4/4 328/4/4
f 326/1/4 327/1/4 329/1/4
f 328/4/4 326/4/4 329/4/4
f 329/1/4 327/1/4 330/1/4
f 324/1/4 328/1/4 331/1/4
f 331/1/4 328/1/4 332/1/4
f 328/2/4 329/2/4 333/2/4
f 332/1/4 328/1/4 333/1/4
f 333/2/4 329/2/4 334/2/4
f 324/1/4 331/1/4 335/1/4
f 331/4/4 332/4/4 336/4/4
f 335/1/4 331/1/4 336/1/4
f 332/2/4 333/2/4 337/2/4
f 336/4/4 332/4/4 337/4/4
f 337/2/4 333/2/4 338/2/4
f 339/1/4 340/1/4 341/1/4
f 341/1/4 340/1/4 342/1/4
f 342/1/4 343/1/4 344/1/4
f 344/1/4 343/1/4 345/1/4
f 345/1/4 346/1/4 347/1/4
f 347/1/4 346/1/4 348/1/4
f 349/1/4 350/1/4 352/1/4
f 352/1/4 350/1/4 353/1/4
f 351/1/4 352/1/4 355/1/4
f 355/1/4 352/1/4 356/1/4
f 354/1/4 355/1/4 357/1/4
f 357/1/4 355/1/4 358/1/4
f 359/1/4 360/1/4 361/1/4
f 361/1/4 360/1/4 362/1/4
f 366/1/5 364/1/5 363/1/5
f 367/1/5 364/1/5 366/1/5
f 369/3/5 366/3/5 365/3/5
f 370/1/5 367/1/5 366/1/5
f 370/3/5 366/3/5 369/3/5
f 371/3/5 368/3/5 367/3/5
f 371/1/5 367/1/5 370/1/5
f 372/3/5 368/3/5 371/3/5
f 373/1/5 370/1/5 369/1/5
f 373/1/5 371/1/5 370/1/5
f 373/1/5 372/1/5 371/1/5
f 374/1/5 372/1/5 373/1/5
f 378/1/5 376/1/5 375/1/5
f 379/1/5 376/1/5 378/1/5
f 381/3/5 378/3/5 377/3/5
f 381/1/5 379/1/5 378/1/5
f 382/3/5 380/3/5 379/3/5
f 382/1/5 379/1/5 381/1/5
f 383/3/5 381/3/5 377/3/5
f 384/3/5 381/3/5 383/3/5
f 385/3/5 380/3/5 382/3/5
f 386/3/5 380/3/5 385/3/5
f 391/3/5 388/3/5 387/3/5
f 391/1/5 389/1/5 388/1/5
f 392/3/5 390/3/5 389/3/5
f 392/1/5 389/1/5 391/1/5
f 393/3/5 391/3/5 387/3/5
f 394/3/5 391/3/5 393/3/5
f 395/3/5 390/3/5 392/3/5
f 396/3/5 390/3/5 395/3/5
f 399/1/5 398/1/5 397/1/5
f 400/1/5 398/1/5 399/1/5
f 405/3/5 402/3/5 401/3/5
f 406/3/5 402/3/5 405/3/5
f 407/3/5 404/3/5 403/3/5
f 408/3/5 404/3/5 407/3/5
f 411/3/5 410/3/5 409/3/5
f 412/3/5 410/3/5 411/3/5
f 418/1/5 414/1/5 413/1/5
f 419/1/5 416/1/5 415/1/5
f 422/1/5 418/1/5 417/1/5
f 423/1/5 414/1/5 418/1/5
f 423/1/5 418/1/5 422/1/5
f 424/1/5 420/1/5 419/1/5
f 424/1/5 419/1/5 415/1/5
f 425/1/5 420/1/5 424/1/5
f 427/1/5 422/1/5 421/1/5
f 428/1/5 422/1/5 427/1/5
f 429/1/5 426/1/5 425/1/5
f 430/1/5 426/1/5 429/1/5
f 435/1/5 432/1/5 431/1/5
f 436/1/5 432/1/5 435/1/5
f 437/1/5 434/1/5 433/1/5
f 438/1/5 434/1/5 437/1/5
f 443/1/5 440/1/5 439/1/5
f 444/1/5 440/1/5 443/1/5
f 445/1/5 442/1/5 441/1/5
f 446/1/5 442/1/5 445/1/5
f 447/3/6 448/3/6 450/3/6
f 450/3/6 448/3/6 451/3/6
f 449/3/6 450/3/6 453/3/6
f 450/1/6 451/1/6 454/1/6
f 453/3/6 450/3/6 454/3/6
f 451/3/6 452/3/6 455/3/6
f 454/1/6 451/1/6 455/1/6
f 455/3/6 452/3/6 456/3/6
f 453/1/6 454/1/6 457/1/6
f 454/1/6 455/1/6 457/1/6
f 455/1/6 456/1/6 457/1/6
f 457/1/6 456/1/6 458/1/6
f 459/1/6 460/1/6 463/1/6
f 463/1/6 460/1/6 464/1/6
f 464/1/6 460/1/6 465/1/6
f 461/1/6 462/1/6 466/1/6
f 466/1/6 462/1/6 467/1/6
f 467/1/6 462/1/6 468/1/6
f 469/4/6 470/4/6 476/4/6
f 470/2/6 471/2/6 477/2/6
f 476/4/6 470/4/6 477/4/6
f 477/2/6 471/2/6 478/2/6
f 472/2/6 473/2/6 479/2/6
f 473/4/6 474/4/6 480/4/6
f 479/2/6 473/2/6 480/2/6
f 480/4/6 474/4/6 481/4/6
f 475/2/6 476/2/6 484/2/6
f 484/2/6 476/2/6 485/2/6
f 481/2/6 482/2/6 486/2/6
f 486/2/6 482/2/6 487/2/6
f 483/1/6 484/1/6 489/1/6
f 489/1/6 484/1/6 490/1/6
f 487/1/6 488/1/6 491/1/6
f 491/1/6 488/1/6 492/1/6
f 493/2/6 494/2/6 498/2/6
f 498/2/6 494/2/6 499/2/6
f 495/2/6 496/2/6 500/2/6
f 500/2/6 496/2/6 501/2/6
f 497/1/6 498/1/6 503/1/6
f 503/1/6 498/1/6 504/1/6
f 501/1/6 502/1/6 505/1/6
f 505/1/6 502/1/6 506/1/6
f 507/1/6 508/1/6 512/1/6
f 512/1/6 508/1/6 513/1/6
f 509/1/6 510/1/6 514/1/6
f 514/1/6 510/1/6 515/1/6
f 511/1/6 512/1/6 517/1/6
f 517/1/6 512/1/6 518/1/6
f 515/1/6 516/1/6 519/1/6
f 519/1/6 516/1/6 520/1/6
